<svg id="Layer_1" data-name="Layer 1" xmlns="http://www.w3.org/2000/svg" viewBox="0 0 291.58 26.32"><defs><style>.cls-1,.cls-5{fill:none;}.cls-1{stroke:#231f20;}.cls-1,.cls-5,.cls-6{stroke-miterlimit:10;}.cls-2{font-size:12px;fill:#231f20;font-family:MyriadPro-Regular, Myriad Pro;}.cls-3{letter-spacing:0em;}.cls-4{letter-spacing:0.01em;}.cls-5,.cls-6{stroke:#6d6e71;}.cls-6{fill:#6d6e71;}</style></defs><rect class="cls-1" x="0.5" y="0.5" width="74.03" height="25.32"/><line class="cls-1" x1="24.53" y1="0.5" x2="24.53" y2="25.82"/><text class="cls-2" transform="translate(10.18 17.42)">1</text><text class="cls-2" transform="translate(35.46 17.42)">n<tspan class="cls-3" x="6.66" y="0">e</tspan><tspan class="cls-4" x="12.64" y="0">x</tspan><tspan x="18.35" y="0">t</tspan></text><line class="cls-5" x1="62.01" y1="14.61" x2="86.52" y2="14.61"/><rect class="cls-1" x="88.12" y="0.5" width="74.03" height="25.32"/><line class="cls-1" x1="112.15" y1="0.5" x2="112.15" y2="25.82"/><text class="cls-2" transform="translate(97.8 17.42)">2</text><text class="cls-2" transform="translate(123.08 17.42)">n<tspan class="cls-3" x="6.66" y="0">e</tspan><tspan class="cls-4" x="12.64" y="0">x</tspan><tspan x="18.35" y="0">t</tspan></text><line class="cls-5" x1="149.63" y1="14.61" x2="174.14" y2="14.61"/><rect class="cls-1" x="175.74" y="0.5" width="74.03" height="25.32"/><line class="cls-1" x1="199.77" y1="0.5" x2="199.77" y2="25.82"/><text class="cls-2" transform="translate(185.42 17.42)">3</text><text class="cls-2" transform="translate(210.7 17.42)">n<tspan class="cls-3" x="6.66" y="0">e</tspan><tspan class="cls-4" x="12.64" y="0">x</tspan><tspan x="18.35" y="0">t</tspan></text><line class="cls-5" x1="237.25" y1="14.61" x2="261.76" y2="14.61"/><polygon class="cls-6" points="266.57 14.41 261.76 11.4 261.76 17.42 266.57 14.41"/><polygon class="cls-6" points="91.33 14.41 86.52 11.4 86.52 17.42 91.33 14.41"/><polygon class="cls-6" points="178.95 14.41 174.14 11.4 174.14 17.42 178.95 14.41"/><text class="cls-2" transform="translate(272.65 17.42)">null</text></svg>